<svg xmlns="http://www.w3.org/2000/svg" width="74.224" height="70" viewBox="0 0 74.224 70">
    <defs>
        <style>
            .cls-1{fill:#f3f3f3}
        </style>
    </defs>
    <g id="event">
        <path id="Path_121" d="M73.282 6.487H63.06V.9a.947.947 0 0 0-.96-.9H52.044a.9.9 0 0 0-.9.9v5.59H23.082V.9a.9.9 0 0 0-.9-.9H12.124a.947.947 0 0 0-.961.9v5.59H.942A.887.887 0 0 0 0 7.332V69.1a.93.93 0 0 0 .942.9h72.34a.93.93 0 0 0 .942-.9V7.332a.887.887 0 0 0-.942-.845zM52.953 1.81h8.3v10.259h-8.3zm-39.978 0h8.3v10.259h-8.3zM11.164 8.3v4.647a.98.98 0 0 0 .961.935H22.18a.929.929 0 0 0 .9-.935V8.3h28.06v4.647a.929.929 0 0 0 .9.935H62.1a.98.98 0 0 0 .961-.935V8.3h9.353v13.273H1.81V8.3zM1.81 68.189V23.383h70.6v44.806zm0 0" class="cls-1"/>
        <path id="Path_122" d="M114.259 203.495l-3.238-.354v-6.211a.909.909 0 0 0-1.195-.865L92.3 202.2h-8.951A2.372 2.372 0 0 0 81 204.58v8.8a2.434 2.434 0 0 0 1.659 2.251v9.042a.9.9 0 0 0 .895.915H88.6a.89.89 0 0 0 .868-.632l2.712-9.174h.12l17.53 6.118a.944.944 0 0 0 .816-.133.91.91 0 0 0 .375-.743v-6.6l3.238-.354a3.81 3.81 0 0 0 3.4-3.787v-3.008a3.809 3.809 0 0 0-3.4-3.786zM82.81 204.58a.561.561 0 0 1 .539-.569h8.211v9.957h-8.211a.58.58 0 0 1-.539-.591zm5.109 19.194H84.47v-8h5.819zm21.292-4.023l-15.84-5.564V203.77l15.84-5.564zm6.638-9.462a2 2 0 0 1-1.787 1.987l-3.04.332v-7.646l3.04.332a2 2 0 0 1 1.787 1.987zm0 0" class="cls-1" transform="translate(-68.78 -166.447)"/>
        <path id="Path_123" d="M352.353 279h-8.448a.905.905 0 0 0 0 1.81h8.448a.905.905 0 1 0 0-1.81zm0 0" class="cls-1" transform="translate(-291.254 -236.91)"/>
        <path id="Path_124" d="M340.368 234.459a.884.884 0 0 0 .226-.029l6.087-1.56a.905.905 0 1 0-.45-1.753l-6.087 1.56a.905.905 0 0 0 .225 1.782zm0 0" class="cls-1" transform="translate(-288.252 -196.224)"/>
        <path id="Path_125" d="M346.614 313.365l-6.087-1.561a.905.905 0 1 0-.45 1.754l6.087 1.56a.905.905 0 0 0 .45-1.753zm0 0" class="cls-1" transform="translate(-288.185 -264.739)"/>
    </g>
</svg>
