<svg xmlns="http://www.w3.org/2000/svg" width="70" height="70.012" viewBox="0 0 70 70.012">
    <defs>
        <style>
            .cls-1{fill:#f3f3f3}
        </style>
    </defs>
    <g id="calendar" transform="translate(-2 -1.988)">
        <path id="Path_94" d="M43 23.99h-2.97a1 1 0 0 1 0-2H43a1 1 0 0 1 0 2z" class="cls-1"/>
        <path id="Path_95" d="M70 72H4a2 2 0 0 1-2-2V22.99a1 1 0 0 1 1-1h20.13a1 1 0 0 1 0 2H4V70h66V23.99H50a1 1 0 0 1 0-2h21a1 1 0 0 1 1 1V70a2 2 0 0 1-2 2z" class="cls-1"/>
        <path id="Path_96" d="M33.03 23.99h-2.9a1 1 0 0 1 0-2h2.9a1 1 0 0 1 0 2z" class="cls-1"/>
        <path id="Path_97" d="M43 23.99h-2.97a1 1 0 0 1 0-2H43a1 1 0 0 1 0 2z" class="cls-1"/>
        <path id="Path_98" d="M23.13 23.99H3a1 1 0 0 1-1-1v-13a2 2 0 0 1 2-2h10.5a1 1 0 0 1 0 2H4v12h19.13a1 1 0 0 1 0 2z" class="cls-1"/>
        <path id="Path_99" d="M33.03 23.99h-2.9a1 1 0 0 1 0-2h2.9a1 1 0 0 1 0 2z" class="cls-1"/>
        <path id="Path_100" d="M71 23.99H50a1 1 0 0 1 0-2h20v-12H59.5a1 1 0 0 1 0-2H70a2 2 0 0 1 2 2v13a1 1 0 0 1-1 1z" class="cls-1"/>
        <path id="Path_101" d="M53 9.99H21a1 1 0 0 1 0-2h32a1 1 0 0 1 0 2z" class="cls-1"/>
        <path id="Path_102" d="M58.771 15.988h-5.042A1.73 1.73 0 0 1 52 14.259V3.717a1.731 1.731 0 0 1 1.729-1.729h5.042A1.731 1.731 0 0 1 60.5 3.717v10.542a1.73 1.73 0 0 1-1.729 1.729zm-4.771-2h4.5v-10H54z" class="cls-1"/>
        <path id="Path_103" d="M20.271 15.988h-5.042a1.73 1.73 0 0 1-1.729-1.729V3.717a1.731 1.731 0 0 1 1.729-1.729h5.042A1.731 1.731 0 0 1 22 3.717v10.542a1.73 1.73 0 0 1-1.729 1.729zm-4.771-2H20v-10h-4.5z" class="cls-1"/>
        <path id="Path_104" d="M61.653 38.328h-5.306a1.683 1.683 0 0 1-1.68-1.681v-5.306a1.682 1.682 0 0 1 1.68-1.68h5.306a1.682 1.682 0 0 1 1.68 1.68v5.306a1.683 1.683 0 0 1-1.68 1.681zm-4.986-2h4.666v-4.667h-4.666z" class="cls-1"/>
        <path id="Path_105" d="M46.986 38.328H41.68A1.683 1.683 0 0 1 40 36.647v-5.306a1.682 1.682 0 0 1 1.68-1.68h5.306a1.683 1.683 0 0 1 1.681 1.68v5.306a1.683 1.683 0 0 1-1.681 1.681zm-4.986-2h4.667v-4.667H42z" class="cls-1"/>
        <path id="Path_106" d="M32.32 38.328h-5.306a1.683 1.683 0 0 1-1.681-1.681v-5.306a1.683 1.683 0 0 1 1.681-1.68h5.306a1.682 1.682 0 0 1 1.68 1.68v5.306a1.683 1.683 0 0 1-1.68 1.681zm-4.987-2H32v-4.667h-4.667z" class="cls-1"/>
        <path id="Path_107" d="M61.653 51.328h-5.306a1.683 1.683 0 0 1-1.68-1.681v-5.306a1.682 1.682 0 0 1 1.68-1.68h5.306a1.682 1.682 0 0 1 1.68 1.68v5.306a1.683 1.683 0 0 1-1.68 1.681zm-4.986-2h4.666v-4.667h-4.666z" class="cls-1"/>
        <path id="Path_108" d="M46.986 51.328H41.68A1.683 1.683 0 0 1 40 49.647v-5.306a1.682 1.682 0 0 1 1.68-1.68h5.306a1.683 1.683 0 0 1 1.681 1.68v5.306a1.683 1.683 0 0 1-1.681 1.681zm-4.986-2h4.667v-4.667H42z" class="cls-1"/>
        <path id="Path_109" d="M32.32 51.328h-5.306a1.683 1.683 0 0 1-1.681-1.681v-5.306a1.683 1.683 0 0 1 1.681-1.68h5.306a1.682 1.682 0 0 1 1.68 1.68v5.306a1.683 1.683 0 0 1-1.68 1.681zm-4.987-2H32v-4.667h-4.667z" class="cls-1"/>
        <path id="Path_110" d="M17.653 51.328h-5.306a1.683 1.683 0 0 1-1.68-1.681v-5.306a1.682 1.682 0 0 1 1.68-1.68h5.306a1.682 1.682 0 0 1 1.68 1.68v5.306a1.683 1.683 0 0 1-1.68 1.681zm-4.986-2h4.666v-4.667h-4.666z" class="cls-1"/>
        <path id="Path_111" d="M46.986 64.328H41.68A1.683 1.683 0 0 1 40 62.647v-5.306a1.682 1.682 0 0 1 1.68-1.68h5.306a1.683 1.683 0 0 1 1.681 1.68v5.306a1.683 1.683 0 0 1-1.681 1.681zm-4.986-2h4.667v-4.667H42z" class="cls-1"/>
        <path id="Path_112" d="M32.32 64.328h-5.306a1.683 1.683 0 0 1-1.681-1.681v-5.306a1.683 1.683 0 0 1 1.681-1.68h5.306a1.682 1.682 0 0 1 1.68 1.68v5.306a1.683 1.683 0 0 1-1.68 1.681zm-4.987-2H32v-4.667h-4.667z" class="cls-1"/>
        <path id="Path_113" d="M17.653 64.328h-5.306a1.683 1.683 0 0 1-1.68-1.681v-5.306a1.682 1.682 0 0 1 1.68-1.68h5.306a1.682 1.682 0 0 1 1.68 1.68v5.306a1.683 1.683 0 0 1-1.68 1.681zm-4.986-2h4.666v-4.667h-4.666z" class="cls-1"/>
    </g>
</svg>
