<svg xmlns="http://www.w3.org/2000/svg" width="66.8" height="70" viewBox="0 0 66.8 70">
    <defs>
        <style>
            .cls-1{fill:#f3f3f3}
        </style>
    </defs>
    <g id="paper" transform="translate(-3.6 -2)">
        <path id="Path_80" d="M4.6 38.44a1 1 0 0 1-1-1v-2.97a1 1 0 0 1 2 0v2.97a1 1 0 0 1-1 1z" class="cls-1"/>
        <path id="Path_81" d="M12.95 72a9.348 9.348 0 0 1-9.35-9.352V44.44a1 1 0 0 1 2 0v18.21a7.35 7.35 0 1 0 14.7 0v-2.39a1 1 0 0 1 2 0v2.39A9.361 9.361 0 0 1 12.95 72z" class="cls-1"/>
        <path id="Path_82" d="M58.67 61.26a1 1 0 0 1-1-1V4H5.6v13.56a1 1 0 0 1-2 0V3a1 1 0 0 1 1-1h54.07a1 1 0 0 1 1 1v57.26a1 1 0 0 1-1 1z" class="cls-1"/>
        <path id="Path_83" d="M4.6 28.47a1 1 0 0 1-1-1v-2.91a1 1 0 1 1 2 0v2.91a1 1 0 0 1-1 1z" class="cls-1"/>
        <path id="Path_84" d="M59.263 72H12.947a1 1 0 1 1 0-2h46.316a9.152 9.152 0 0 0 9.137-8.737H21.3a1 1 0 0 1 0-2h48.1a1 1 0 0 1 1 1v.6A11.153 11.153 0 0 1 59.263 72z" class="cls-1"/>
        <path id="Path_85" d="M21.781 20.433h-9.242a1 1 0 0 1-1-1V10.19a1 1 0 0 1 1-1h9.242a1 1 0 0 1 1 1v9.243a1 1 0 0 1-1 1zm-8.242-2h7.242V11.19h-7.242z" class="cls-1"/>
        <path id="Path_86" d="M21.781 35.851h-9.242a1 1 0 0 1-1-1v-9.243a1 1 0 0 1 1-1h9.242a1 1 0 0 1 1 1v9.243a1 1 0 0 1-1 1zm-8.242-2h7.242v-7.243h-7.242z" class="cls-1"/>
        <path id="Path_87" d="M21.781 51.268h-9.242a1 1 0 0 1-1-1v-9.243a1 1 0 0 1 1-1h9.242a1 1 0 0 1 1 1v9.243a1 1 0 0 1-1 1zm-8.242-2h7.242v-7.243h-7.242z" class="cls-1"/>
        <path id="Path_88" d="M51 13.026H28.136a1 1 0 0 1 0-2H51a1 1 0 0 1 0 2z" class="cls-1"/>
        <path id="Path_89" d="M43 19.144H28.136a1 1 0 0 1 0-2H43a1 1 0 0 1 0 2z" class="cls-1"/>
        <path id="Path_90" d="M51 28.443H28.136a1 1 0 0 1 0-2H51a1 1 0 0 1 0 2z" class="cls-1"/>
        <path id="Path_91" d="M43 34.562H28.136a1 1 0 0 1 0-2H43a1 1 0 0 1 0 2z" class="cls-1"/>
        <path id="Path_92" d="M51 43.861H28.136a1 1 0 1 1 0-2H51a1 1 0 0 1 0 2z" class="cls-1"/>
        <path id="Path_93" d="M43 49.979H28.136a1 1 0 0 1 0-2H43a1 1 0 0 1 0 2z" class="cls-1"/>
    </g>
</svg>
