<svg xmlns="http://www.w3.org/2000/svg" width="81.731" height="60" viewBox="0 0 81.731 60">
    <defs>
        <style>
            .cls-1{fill:#f3f3f3}
        </style>
    </defs>
    <g id="team" transform="translate(0 -68.066)">
        <g id="Group_2" transform="translate(62.695 93.668)">
            <g id="Group_1">
                <path id="Path_114" d="M402.164 229.855c-2.781-1.39-8-1.406-8.216-1.406a1.2 1.2 0 1 0 0 2.394c1.346 0 5.252.207 7.145 1.154a1.2 1.2 0 0 0 1.071-2.142z" class="cls-1" transform="translate(-392.751 -228.449)"/>
            </g>
        </g>
        <g id="Group_4" transform="translate(0 68.066)">
            <g id="Group_3">
                <path id="Path_115" d="M78.077 112.12l-4.945-1.413a.5.5 0 0 1-.363-.481v-1.65a9 9 0 0 0 1.145-.939 8.808 8.808 0 0 0 2.7-6.372v-2.277l.478-.956a7.638 7.638 0 0 0 .8-3.4v-6.17a1.2 1.2 0 0 0-1.2-1.2H65.173a7.607 7.607 0 0 0-7.6 7.6v.071a6.35 6.35 0 0 0 .667 2.825l.613 1.226v1.955A9.341 9.341 0 0 0 62.7 108.5v1.73c0 .267 0 .377-.989.66l-2.413.689-6.979-2.538a1.2 1.2 0 0 0-.326-.917l-2.23-2.343v-3.933c.236-.194.468-.394.693-.6a14.052 14.052 0 0 0 4.427-10.215v-3.149a13.839 13.839 0 0 0 1.28-5.82v-12.8a1.2 1.2 0 0 0-1.2-1.2H37.04A11.451 11.451 0 0 0 25.6 79.5v2.56a13.839 13.839 0 0 0 1.28 5.82v2.7A14.629 14.629 0 0 0 32 101.752v4.026l-2.23 2.343a1.2 1.2 0 0 0-.326.917l-7.366 2.678a6.278 6.278 0 0 0-1.48.775l-1.157-.578a9.144 9.144 0 0 0 4.589-3.713 1.2 1.2 0 0 0 0-1.071c-.863-1.726-.968-4.89-1.052-7.433-.028-.846-.054-1.646-.105-2.358-.408-5.738-4.773-10.071-10.155-10.071S2.971 91.6 2.563 97.341c-.051.712-.077 1.512-.105 2.358-.084 2.542-.189 5.706-1.052 7.432a1.2 1.2 0 0 0 0 1.071c.052.1 1.141 2.208 4.591 3.709l-3.213 1.606A5.011 5.011 0 0 0 0 118.023v8.845a1.2 1.2 0 1 0 2.394 0v-8.845a2.629 2.629 0 0 1 1.461-2.364l4-2 1.392 1.323a5.035 5.035 0 0 0 6.94 0l1.392-1.322 1.3.652a6.3 6.3 0 0 0-.963 3.343v9.215a1.2 1.2 0 1 0 2.394 0v-9.215a3.935 3.935 0 0 1 2.583-3.687l7.766-2.824 3.233 4.85a2.468 2.468 0 0 0 1.817 1.091q.124.012.247.012a2.468 2.468 0 0 0 1.749-.726l1.972-1.972v12.471a1.2 1.2 0 0 0 2.394 0V114.4l1.972 1.972a2.467 2.467 0 0 0 1.749.726q.123 0 .247-.012a2.468 2.468 0 0 0 1.817-1.091l3.233-4.85 7.766 2.824a3.935 3.935 0 0 1 2.583 3.687v9.215a1.2 1.2 0 0 0 2.394 0v-9.215a6.329 6.329 0 0 0-1.771-4.38l.3-.084a6.566 6.566 0 0 0 1.114-.4l3.057 3.057v11.025a1.2 1.2 0 0 0 2.394 0v-11.03l3.036-3.036a2.848 2.848 0 0 0 .509.2l4.945 1.413a2.654 2.654 0 0 1 1.917 2.541v9.9a1.2 1.2 0 0 0 2.394 0v-9.9a5.06 5.06 0 0 0-3.65-4.842zm-70.4-2.115a8.607 8.607 0 0 1-3.842-2.467 13.2 13.2 0 0 0 .682-2.867 8.928 8.928 0 0 0 3.16 3.9zm6.859 3.24a2.642 2.642 0 0 1-3.642 0l-1.113-1.058a2.477 2.477 0 0 0 .291-1.169v-1.276a8.9 8.9 0 0 0 5.286 0v1.275a2.477 2.477 0 0 0 .291 1.17zm-1.82-5.5a6.491 6.491 0 0 1-6.483-6.483 1.19 1.19 0 0 0-1.394-1.18c0-.1.007-.206.01-.308.027-.823.052-1.6.1-2.268a8.889 8.889 0 0 1 2.42-5.582 7.439 7.439 0 0 1 10.692 0 8.889 8.889 0 0 1 2.42 5.582c.047.667.073 1.444.1 2.267l.007.214a10.758 10.758 0 0 0-5.914-4.321 15.026 15.026 0 0 0-4.554-.722 1.2 1.2 0 0 0-.829.366l-2.16 2.24a1.2 1.2 0 0 0 1.729 1.667l1.8-1.864c1.548.076 6.528.655 8.465 4.92a6.468 6.468 0 0 1-6.406 5.477zm5.037 2.26v-1.428a8.856 8.856 0 0 0 3.161-3.9 13.18 13.18 0 0 0 .682 2.86 8.648 8.648 0 0 1-3.84 2.472zm11.524-19.418v-2.97a1.2 1.2 0 0 0-.119-.521A11.484 11.484 0 0 1 28 82.064V79.5a9.054 9.054 0 0 1 9.044-9.044h16.721v11.6A11.484 11.484 0 0 1 52.6 87.1a1.2 1.2 0 0 0-.119.521v3.409a11.494 11.494 0 0 1-3.67 8.468 11.913 11.913 0 0 1-.919.778l-.021.015a11.512 11.512 0 0 1-7.769 2.318 11.858 11.858 0 0 1-10.825-12.022zm6.741 24.09a.075.075 0 0 1-.067.024.076.076 0 0 1-.061-.037l-3.723-5.585 1.2-1.259 5.649 3.861zm4.863-4.62l-6.481-4.432v-2.235a13.48 13.48 0 0 0 5.554 1.6q.473.031.942.03a13.868 13.868 0 0 0 6.471-1.586v2.187zm4.99 4.608a.076.076 0 0 1-.061.037.074.074 0 0 1-.067-.024l-3-3 5.657-3.858 1.2 1.259zm21.862-1.01l-2.717-2.717a3.285 3.285 0 0 0 .074-.711v-.505a8.4 8.4 0 0 0 2.371.419h.276a8.893 8.893 0 0 0 2.64-.4v.482a2.862 2.862 0 0 0 .087.7zm4.515-7.735a6.435 6.435 0 0 1-4.715 1.827 6.7 6.7 0 0 1-6.283-6.8v-2.241a1.2 1.2 0 0 0-.126-.535l-.74-1.479a3.944 3.944 0 0 1-.414-1.755v-.071a5.209 5.209 0 0 1 5.2-5.2H75.5v4.973a5.231 5.231 0 0 1-.549 2.327l-.6 1.209a1.2 1.2 0 0 0-.126.535v2.56a6.432 6.432 0 0 1-1.977 4.649z" class="cls-1" transform="translate(0 -68.066)"/>
            </g>
        </g>
        <g id="Group_6" transform="translate(74.216 117.99)">
            <g id="Group_5">
                <path id="Path_116" d="M466.12 380.814a1.2 1.2 0 0 0-1.2 1.2v7.681a1.2 1.2 0 1 0 2.394 0v-7.681a1.2 1.2 0 0 0-1.194-1.2z" class="cls-1" transform="translate(-464.923 -380.814)"/>
            </g>
        </g>
        <g id="Group_8" transform="translate(5.12 119.573)">
            <g id="Group_7">
                <path id="Path_117" d="M33.274 390.728a1.2 1.2 0 0 0-1.2 1.2v6.1a1.2 1.2 0 0 0 2.394 0v-6.1a1.2 1.2 0 0 0-1.194-1.2z" class="cls-1" transform="translate(-32.077 -390.728)"/>
            </g>
        </g>
        <g id="Group_10" transform="translate(30.723 78.943)">
            <g id="Group_9">
                <path id="Path_118" d="M212.425 139.758c-4.528-4.528-14-3.662-17.865-3.08a2.458 2.458 0 0 0-2.1 2.449v2.758a1.2 1.2 0 1 0 2.394 0v-2.758a.079.079 0 0 1 .063-.081 37.824 37.824 0 0 1 7.778-.38c3.733.249 6.438 1.186 8.037 2.786a1.2 1.2 0 1 0 1.693-1.693z" class="cls-1" transform="translate(-192.46 -136.203)"/>
            </g>
        </g>
        <g id="Group_12" transform="translate(25.602 120.551)">
            <g id="Group_11">
                <path id="Path_119" d="M161.581 396.853a1.2 1.2 0 0 0-1.2 1.2v5.12a1.2 1.2 0 0 0 2.394 0v-5.12a1.2 1.2 0 0 0-1.194-1.2z" class="cls-1" transform="translate(-160.384 -396.853)"/>
            </g>
        </g>
        <g id="Group_14" transform="translate(53.765 120.551)">
            <g id="Group_13">
                <path id="Path_120" d="M338 396.853a1.2 1.2 0 0 0-1.2 1.2v5.12a1.2 1.2 0 1 0 2.394 0v-5.12a1.2 1.2 0 0 0-1.194-1.2z" class="cls-1" transform="translate(-336.806 -396.853)"/>
            </g>
        </g>
    </g>
</svg>
