<svg xmlns="http://www.w3.org/2000/svg" width="70" height="70" viewBox="0 0 70 70">
    <defs>
        <style>
            .cls-1{fill:#f3f3f3}
        </style>
    </defs>
    <g id="match" transform="translate(-2 -2)">
        <path id="Path_126" d="M27.667 26.5v-4.667a8.172 8.172 0 0 0-7.655-8.141 7 7 0 1 0-10.358 0A8.172 8.172 0 0 0 2 21.833V26.5a1.166 1.166 0 0 0 1.167 1.167H26.5a1.166 1.166 0 0 0 1.167-1.167zM14.833 4.333A4.667 4.667 0 1 1 10.167 9a4.671 4.671 0 0 1 4.666-4.667zm10.5 21h-21v-3.5A5.84 5.84 0 0 1 10.167 16H19.5a5.84 5.84 0 0 1 5.833 5.833z" class="cls-1"/>
        <path id="Path_127" d="M58.012 51.692a7 7 0 1 0-10.358 0A8.172 8.172 0 0 0 40 59.833V64.5a1.166 1.166 0 0 0 1.167 1.167H64.5a1.166 1.166 0 0 0 1.167-1.167v-4.667a8.172 8.172 0 0 0-7.655-8.141zm-5.179-9.359A4.667 4.667 0 1 1 48.167 47a4.671 4.671 0 0 1 4.666-4.667zm10.5 21h-21v-3.5A5.84 5.84 0 0 1 48.167 54H57.5a5.84 5.84 0 0 1 5.833 5.833z" class="cls-1" transform="translate(6.333 6.333)"/>
        <path id="Path_129" d="M33.009 11.293l-4.667 4.667a1.165 1.165 0 0 0 0 1.65l4.667 4.667 1.65-1.65-2.675-2.675h21.683v22.166H56V16.785a1.166 1.166 0 0 0-1.167-1.167h-22.85l2.675-2.675z" class="cls-1" transform="translate(4.333 1.549)"/>
        <path id="Path_130" d="M34.992 52.842l-1.65 1.65 2.675 2.675H14.333V28H12v30.333a1.166 1.166 0 0 0 1.167 1.167h22.85l-2.675 2.675 1.65 1.65 4.667-4.667a1.165 1.165 0 0 0 0-1.65z" class="cls-1" transform="translate(1.667 4.333)"/>
    </g>
</svg>
