<svg xmlns="http://www.w3.org/2000/svg" width="64.953" height="70" viewBox="0 0 64.953 70">
    <defs>
        <style>
            .cls-1{fill:#f3f3f3}
        </style>
    </defs>
    <g id="event_1_">
        <path id="Path_133" d="M110.042 170.641a2.149 2.149 0 0 0-2.074 1.507l-3.731 11.485a.131.131 0 0 1-.124.09H92.036a2.181 2.181 0 0 0-1.282 3.946l9.77 7.1a.13.13 0 0 1 .048.146L96.84 206.4a2.181 2.181 0 0 0 3.357 2.439l9.77-7.1a.129.129 0 0 1 .153 0l9.77 7.1a2.15 2.15 0 0 0 2.564 0 2.15 2.15 0 0 0 .793-2.439l-3.732-11.485a.131.131 0 0 1 .048-.146l9.77-7.1a2.181 2.181 0 0 0-1.282-3.946h-12.078a.13.13 0 0 1-.124-.09l-3.732-11.485a2.149 2.149 0 0 0-2.075-1.507zm3.856 13.626a2.176 2.176 0 0 0 2.075 1.507h12.076a.13.13 0 0 1 .077.236l-9.77 7.1a2.176 2.176 0 0 0-.793 2.439l3.731 11.485a.131.131 0 0 1-.2.146l-9.77-7.1a2.175 2.175 0 0 0-2.565 0l-9.77 7.1a.131.131 0 0 1-.2-.146l3.731-11.485a2.175 2.175 0 0 0-.792-2.439l-9.77-7.1a.131.131 0 0 1 .077-.236h12.076a2.175 2.175 0 0 0 2.074-1.507l3.732-11.485a.13.13 0 0 1 .248 0zm0 0" class="cls-1" transform="translate(-77.566 -147.311)"/>
        <path id="Path_134" d="M61.165 5.047H58.42V3.926a3.926 3.926 0 0 0-7.852 0v1.121h-6.827V3.926a3.926 3.926 0 1 0-7.851 0v1.121h-6.827V3.926a3.926 3.926 0 1 0-7.852 0v1.121h-6.826V3.926a3.926 3.926 0 0 0-7.852 0v1.121H3.788A3.792 3.792 0 0 0 0 8.835V23.25a1.025 1.025 0 1 0 2.051 0v-4.82H62.9v39.491a1.025 1.025 0 0 0 2.051 0V8.835a3.792 3.792 0 0 0-3.788-3.788zm-8.547-1.121a1.875 1.875 0 0 1 3.751 0v4.335a1.875 1.875 0 0 1-3.751 0zm-14.677 0a1.875 1.875 0 0 1 3.75 0v4.335a1.875 1.875 0 0 1-3.75 0zm-14.679 0a1.875 1.875 0 1 1 3.75 0v4.335a1.875 1.875 0 1 1-3.75 0zM10.46 2.051a1.877 1.877 0 0 1 1.875 1.875v4.335a1.875 1.875 0 0 1-3.751 0V3.926a1.877 1.877 0 0 1 1.876-1.875zM2.051 16.379V8.835A1.739 1.739 0 0 1 3.788 7.1h2.745v1.161a3.926 3.926 0 0 0 7.852 0V7.1h6.826v1.161a3.926 3.926 0 1 0 7.852 0V7.1h6.827v1.161a3.926 3.926 0 0 0 7.852 0V7.1h6.826v1.161a3.926 3.926 0 0 0 7.852 0V7.1h2.746A1.738 1.738 0 0 1 62.9 8.835v7.544zm0 0" class="cls-1"/>
        <path id="Path_135" d="M63.927 232.489a1.025 1.025 0 0 0-1.025 1.025v3.415a1.739 1.739 0 0 1-1.737 1.737H3.787a1.739 1.739 0 0 1-1.737-1.737v-38.15a1.025 1.025 0 0 0-2.051 0v38.15a3.792 3.792 0 0 0 3.788 3.788h57.378a3.792 3.792 0 0 0 3.788-3.788v-3.415a1.025 1.025 0 0 0-1.026-1.025zm0 0" class="cls-1" transform="translate(0 -170.717)"/>
    </g>
</svg>
